STARTFONT 2.3
FONT -FontForge-Tangerine-Book-R-Normal--9-90-72-72-P-33-ISO10646-1
SIZE 9 72 72  2
FONTBOUNDINGBOX 15 11 -3 -3
COMMENT "Generated by fontforge, http://fontforge.sourceforge.net"
COMMENT "Copyright (c) 2010 by Toshi Omagari. All rights reserved."
STARTPROPERTIES 40
FOUNDRY "FontForge"
FAMILY_NAME "Tangerine"
WEIGHT_NAME "Book"
SLANT "R"
SETWIDTH_NAME "Normal"
ADD_STYLE_NAME ""
PIXEL_SIZE 9
POINT_SIZE 90
RESOLUTION_X 72
RESOLUTION_Y 72
SPACING "P"
AVERAGE_WIDTH 33
CHARSET_REGISTRY "ISO10646"
CHARSET_ENCODING "1"
FONTNAME_REGISTRY ""
CHARSET_COLLECTIONS "ISO10646-1"
BITS_PER_PIXEL 2
FONT_NAME "Tangerine-Regular"
FACE_NAME "Tangerine Regular"
COPYRIGHT "Copyright (c) 2010 by Toshi Omagari. All rights reserved."
FONT_VERSION "1.3"
FONT_ASCENT 7
FONT_DESCENT 2
UNDERLINE_POSITION -1
UNDERLINE_THICKNESS 1
X_HEIGHT 1
CAP_HEIGHT 5
RAW_ASCENT 750
RAW_DESCENT 250
NORM_SPACE 1
RELATIVE_WEIGHT 40
RELATIVE_SETWIDTH 50
SUPERSCRIPT_X 0
SUPERSCRIPT_Y 4
SUPERSCRIPT_SIZE 5
SUBSCRIPT_X 0
SUBSCRIPT_Y 1
SUBSCRIPT_SIZE 5
AVG_LOWERCASE_WIDTH 22
AVG_UPPERCASE_WIDTH 62
ENDPROPERTIES
CHARS 233
STARTCHAR space
ENCODING 32
SWIDTH 150 0
DWIDTH 1 0
BBX 1 1 0 0
BITMAP
00
ENDCHAR
STARTCHAR exclam
ENCODING 33
SWIDTH 189 0
DWIDTH 2 0
BBX 3 6 0 0
BITMAP
04
04
10
10
00
40
ENDCHAR
STARTCHAR quotedbl
ENCODING 34
SWIDTH 214 0
DWIDTH 2 0
BBX 1 1 1 3
BITMAP
40
ENDCHAR
STARTCHAR numbersign
ENCODING 35
SWIDTH 289 0
DWIDTH 3 0
BBX 3 3 0 0
BITMAP
14
78
A0
ENDCHAR
STARTCHAR dollar
ENCODING 36
SWIDTH 269 0
DWIDTH 2 0
BBX 2 3 0 0
BITMAP
10
20
50
ENDCHAR
STARTCHAR percent
ENCODING 37
SWIDTH 388 0
DWIDTH 3 0
BBX 3 3 0 0
BITMAP
54
54
14
ENDCHAR
STARTCHAR ampersand
ENCODING 38
SWIDTH 507 0
DWIDTH 5 0
BBX 4 5 0 0
BITMAP
18
14
20
50
55
ENDCHAR
STARTCHAR quotesingle
ENCODING 39
SWIDTH 120 0
DWIDTH 1 0
BBX 1 1 1 3
BITMAP
40
ENDCHAR
STARTCHAR parenleft
ENCODING 40
SWIDTH 250 0
DWIDTH 2 0
BBX 1 3 1 1
BITMAP
40
40
40
ENDCHAR
STARTCHAR parenright
ENCODING 41
SWIDTH 276 0
DWIDTH 2 0
BBX 3 6 0 -1
BITMAP
04
04
04
10
10
40
ENDCHAR
STARTCHAR asterisk
ENCODING 42
SWIDTH 188 0
DWIDTH 2 0
BBX 2 2 0 2
BITMAP
10
50
ENDCHAR
STARTCHAR plus
ENCODING 43
SWIDTH 301 0
DWIDTH 3 0
BBX 3 3 0 0
BITMAP
10
74
10
ENDCHAR
STARTCHAR comma
ENCODING 44
SWIDTH 112 0
DWIDTH 1 0
BBX 1 1 0 0
BITMAP
40
ENDCHAR
STARTCHAR hyphen
ENCODING 45
SWIDTH 245 0
DWIDTH 2 0
BBX 2 1 0 1
BITMAP
70
ENDCHAR
STARTCHAR period
ENCODING 46
SWIDTH 112 0
DWIDTH 1 0
BBX 1 1 0 0
BITMAP
00
ENDCHAR
STARTCHAR slash
ENCODING 47
SWIDTH 210 0
DWIDTH 2 0
BBX 3 5 0 0
BITMAP
04
00
10
00
40
ENDCHAR
STARTCHAR zero
ENCODING 48
SWIDTH 349 0
DWIDTH 3 0
BBX 3 3 0 0
BITMAP
18
44
50
ENDCHAR
STARTCHAR one
ENCODING 49
SWIDTH 189 0
DWIDTH 2 0
BBX 2 4 0 0
BITMAP
50
20
50
40
ENDCHAR
STARTCHAR two
ENCODING 50
SWIDTH 277 0
DWIDTH 3 0
BBX 3 3 0 0
BITMAP
14
00
50
ENDCHAR
STARTCHAR three
ENCODING 51
SWIDTH 253 0
DWIDTH 2 0
BBX 4 4 -1 -1
BITMAP
05
04
08
74
ENDCHAR
STARTCHAR four
ENCODING 52
SWIDTH 363 0
DWIDTH 3 0
BBX 4 5 0 0
BITMAP
01
04
04
6C
10
ENDCHAR
STARTCHAR five
ENCODING 53
SWIDTH 250 0
DWIDTH 2 0
BBX 3 4 -1 -1
BITMAP
04
18
04
74
ENDCHAR
STARTCHAR six
ENCODING 54
SWIDTH 296 0
DWIDTH 3 0
BBX 4 5 0 0
BITMAP
0A
24
50
44
50
ENDCHAR
STARTCHAR seven
ENCODING 55
SWIDTH 326 0
DWIDTH 3 0
BBX 3 4 0 -1
BITMAP
3C
00
00
40
ENDCHAR
STARTCHAR eight
ENCODING 56
SWIDTH 305 0
DWIDTH 3 0
BBX 3 5 0 0
BITMAP
04
14
14
44
54
ENDCHAR
STARTCHAR nine
ENCODING 57
SWIDTH 304 0
DWIDTH 3 0
BBX 4 5 -1 -2
BITMAP
01
12
1D
04
74
ENDCHAR
STARTCHAR colon
ENCODING 58
SWIDTH 156 0
DWIDTH 1 0
BBX 1 2 0 0
BITMAP
40
40
ENDCHAR
STARTCHAR semicolon
ENCODING 59
SWIDTH 156 0
DWIDTH 1 0
BBX 1 2 0 0
BITMAP
40
40
ENDCHAR
STARTCHAR less
ENCODING 60
SWIDTH 301 0
DWIDTH 3 0
BBX 2 2 0 0
BITMAP
50
10
ENDCHAR
STARTCHAR equal
ENCODING 61
SWIDTH 301 0
DWIDTH 3 0
BBX 3 1 0 0
BITMAP
B4
ENDCHAR
STARTCHAR greater
ENCODING 62
SWIDTH 301 0
DWIDTH 3 0
BBX 1 1 1 1
BITMAP
40
ENDCHAR
STARTCHAR question
ENCODING 63
SWIDTH 285 0
DWIDTH 3 0
BBX 4 5 0 0
BITMAP
05
01
10
00
40
ENDCHAR
STARTCHAR at
ENCODING 64
SWIDTH 492 0
DWIDTH 4 0
BBX 4 5 0 -1
BITMAP
1E
56
45
68
14
ENDCHAR
STARTCHAR A
ENCODING 65
SWIDTH 996 0
DWIDTH 9 0
BBX 9 6 0 0
BITMAP
001540
000040
000500
007E00
000100
550140
ENDCHAR
STARTCHAR B
ENCODING 66
SWIDTH 638 0
DWIDTH 6 0
BBX 6 6 0 0
BITMAP
0190
0110
0140
0410
4410
1440
ENDCHAR
STARTCHAR C
ENCODING 67
SWIDTH 557 0
DWIDTH 5 0
BBX 6 6 0 0
BITMAP
0150
1000
1000
4000
5000
1540
ENDCHAR
STARTCHAR D
ENCODING 68
SWIDTH 799 0
DWIDTH 7 0
BBX 7 6 0 0
BITMAP
0550
0054
0044
0104
0104
5550
ENDCHAR
STARTCHAR E
ENCODING 69
SWIDTH 494 0
DWIDTH 4 0
BBX 5 6 0 0
BITMAP
0440
0400
1900
5000
4000
1100
ENDCHAR
STARTCHAR F
ENCODING 70
SWIDTH 626 0
DWIDTH 6 0
BBX 7 6 0 0
BITMAP
0168
0020
0010
03F0
0040
5000
ENDCHAR
STARTCHAR G
ENCODING 71
SWIDTH 571 0
DWIDTH 5 0
BBX 8 8 -1 -2
BITMAP
006C
0185
0200
0100
0110
0010
4040
1500
ENDCHAR
STARTCHAR H
ENCODING 72
SWIDTH 865 0
DWIDTH 8 0
BBX 10 8 0 -1
BITMAP
000010
015000
004100
005500
1FAD00
500400
040400
100000
ENDCHAR
STARTCHAR I
ENCODING 73
SWIDTH 554 0
DWIDTH 5 0
BBX 7 6 0 0
BITMAP
0064
0150
0110
0140
4140
3D00
ENDCHAR
STARTCHAR J
ENCODING 74
SWIDTH 634 0
DWIDTH 6 0
BBX 7 8 0 -2
BITMAP
0018
0044
0050
0010
0010
4080
4600
B800
ENDCHAR
STARTCHAR K
ENCODING 75
SWIDTH 936 0
DWIDTH 8 0
BBX 9 6 0 0
BITMAP
015140
001400
005000
005000
405400
540500
ENDCHAR
STARTCHAR L
ENCODING 76
SWIDTH 657 0
DWIDTH 6 0
BBX 7 6 0 0
BITMAP
0074
0044
0100
0100
1100
5FC0
ENDCHAR
STARTCHAR M
ENCODING 77
SWIDTH 1219 0
DWIDTH 11 0
BBX 12 6 0 0
BITMAP
005545
000114
000550
000550
401510
150414
ENDCHAR
STARTCHAR N
ENCODING 78
SWIDTH 990 0
DWIDTH 9 0
BBX 12 6 0 0
BITMAP
015005
001410
001500
000140
404140
250040
ENDCHAR
STARTCHAR O
ENCODING 79
SWIDTH 606 0
DWIDTH 5 0
BBX 6 6 0 0
BITMAP
07D0
1460
1010
4010
6080
2E40
ENDCHAR
STARTCHAR P
ENCODING 80
SWIDTH 783 0
DWIDTH 7 0
BBX 8 6 0 0
BITMAP
0059
0011
0001
0040
4000
5400
ENDCHAR
STARTCHAR Q
ENCODING 81
SWIDTH 563 0
DWIDTH 5 0
BBX 6 8 1 -2
BITMAP
1A00
4140
4040
4000
4000
1400
6900
07D0
ENDCHAR
STARTCHAR R
ENCODING 82
SWIDTH 854 0
DWIDTH 8 0
BBX 8 6 0 0
BITMAP
0028
0041
0040
0050
0110
5404
ENDCHAR
STARTCHAR S
ENCODING 83
SWIDTH 480 0
DWIDTH 4 0
BBX 5 6 0 0
BITMAP
0040
0400
0200
0100
4100
5400
ENDCHAR
STARTCHAR T
ENCODING 84
SWIDTH 577 0
DWIDTH 5 0
BBX 7 6 0 0
BITMAP
02F4
0400
0000
0040
0000
5400
ENDCHAR
STARTCHAR U
ENCODING 85
SWIDTH 752 0
DWIDTH 7 0
BBX 6 6 2 0
BITMAP
5010
0040
0140
4200
4900
E140
ENDCHAR
STARTCHAR V
ENCODING 86
SWIDTH 661 0
DWIDTH 6 0
BBX 6 6 1 0
BITMAP
5060
0010
0400
0400
0400
0400
ENDCHAR
STARTCHAR W
ENCODING 87
SWIDTH 822 0
DWIDTH 7 0
BBX 8 6 1 0
BITMAP
5405
0441
0544
0444
0450
0040
ENDCHAR
STARTCHAR X
ENCODING 88
SWIDTH 813 0
DWIDTH 7 0
BBX 8 6 0 0
BITMAP
0205
0140
0040
0080
0050
5428
ENDCHAR
STARTCHAR Y
ENCODING 89
SWIDTH 662 0
DWIDTH 6 0
BBX 8 7 0 -1
BITMAP
0141
0105
0108
4160
4290
4140
3D00
ENDCHAR
STARTCHAR Z
ENCODING 90
SWIDTH 625 0
DWIDTH 6 0
BBX 6 6 0 0
BITMAP
02E0
0450
0000
0000
0000
7F40
ENDCHAR
STARTCHAR bracketleft
ENCODING 91
SWIDTH 318 0
DWIDTH 3 0
BBX 3 7 0 -1
BITMAP
04
04
10
10
10
10
50
ENDCHAR
STARTCHAR backslash
ENCODING 92
SWIDTH 212 0
DWIDTH 2 0
BBX 2 5 0 0
BITMAP
40
40
00
10
10
ENDCHAR
STARTCHAR bracketright
ENCODING 93
SWIDTH 339 0
DWIDTH 3 0
BBX 3 7 1 -1
BITMAP
14
10
10
10
10
40
40
ENDCHAR
STARTCHAR asciicircum
ENCODING 94
SWIDTH 272 0
DWIDTH 2 0
BBX 3 2 0 2
BITMAP
20
54
ENDCHAR
STARTCHAR underscore
ENCODING 95
SWIDTH 356 0
DWIDTH 3 0
BBX 3 1 0 -1
BITMAP
A4
ENDCHAR
STARTCHAR grave
ENCODING 96
SWIDTH 155 0
DWIDTH 1 0
BBX 1 1 0 3
BITMAP
40
ENDCHAR
STARTCHAR a
ENCODING 97
SWIDTH 294 0
DWIDTH 3 0
BBX 3 2 0 0
BITMAP
74
40
ENDCHAR
STARTCHAR b
ENCODING 98
SWIDTH 247 0
DWIDTH 2 0
BBX 5 7 0 0
BITMAP
0140
0400
1000
1000
4000
4000
5000
ENDCHAR
STARTCHAR c
ENCODING 99
SWIDTH 203 0
DWIDTH 2 0
BBX 2 3 0 0
BITMAP
10
00
40
ENDCHAR
STARTCHAR d
ENCODING 100
SWIDTH 285 0
DWIDTH 3 0
BBX 6 7 0 0
BITMAP
0050
0000
0000
0000
0000
0000
5000
ENDCHAR
STARTCHAR e
ENCODING 101
SWIDTH 206 0
DWIDTH 2 0
BBX 2 2 0 0
BITMAP
50
40
ENDCHAR
STARTCHAR f
ENCODING 102
SWIDTH 156 0
DWIDTH 1 0
BBX 5 8 0 -1
BITMAP
0140
0400
0000
1000
1000
7000
4000
4000
ENDCHAR
STARTCHAR g
ENCODING 103
SWIDTH 210 0
DWIDTH 2 0
BBX 3 4 -1 -2
BITMAP
04
24
44
B4
ENDCHAR
STARTCHAR h
ENCODING 104
SWIDTH 292 0
DWIDTH 3 0
BBX 5 7 0 0
BITMAP
0140
0400
0000
1000
1000
4400
5000
ENDCHAR
STARTCHAR i
ENCODING 105
SWIDTH 149 0
DWIDTH 1 0
BBX 1 2 0 0
BITMAP
40
40
ENDCHAR
STARTCHAR j
ENCODING 106
SWIDTH 136 0
DWIDTH 1 0
BBX 1 1 -3 -2
BITMAP
40
ENDCHAR
STARTCHAR k
ENCODING 107
SWIDTH 259 0
DWIDTH 2 0
BBX 5 7 0 0
BITMAP
0140
0400
1000
1000
1000
5000
5000
ENDCHAR
STARTCHAR l
ENCODING 108
SWIDTH 134 0
DWIDTH 1 0
BBX 4 7 0 0
BITMAP
01
04
10
10
40
40
40
ENDCHAR
STARTCHAR m
ENCODING 109
SWIDTH 413 0
DWIDTH 4 0
BBX 4 2 0 0
BITMAP
41
51
ENDCHAR
STARTCHAR n
ENCODING 110
SWIDTH 291 0
DWIDTH 3 0
BBX 3 2 0 0
BITMAP
44
50
ENDCHAR
STARTCHAR o
ENCODING 111
SWIDTH 225 0
DWIDTH 2 0
BBX 2 2 0 0
BITMAP
10
40
ENDCHAR
STARTCHAR p
ENCODING 112
SWIDTH 261 0
DWIDTH 2 0
BBX 4 5 -1 -2
BITMAP
14
05
28
10
40
ENDCHAR
STARTCHAR q
ENCODING 113
SWIDTH 269 0
DWIDTH 2 0
BBX 3 4 0 -2
BITMAP
04
50
10
50
ENDCHAR
STARTCHAR r
ENCODING 114
SWIDTH 195 0
DWIDTH 2 0
BBX 1 2 0 0
BITMAP
40
40
ENDCHAR
STARTCHAR s
ENCODING 115
SWIDTH 188 0
DWIDTH 2 0
BBX 2 2 0 0
BITMAP
40
50
ENDCHAR
STARTCHAR t
ENCODING 116
SWIDTH 171 0
DWIDTH 2 0
BBX 2 3 0 0
BITMAP
10
60
40
ENDCHAR
STARTCHAR u
ENCODING 117
SWIDTH 299 0
DWIDTH 3 0
BBX 3 2 0 0
BITMAP
44
40
ENDCHAR
STARTCHAR v
ENCODING 118
SWIDTH 271 0
DWIDTH 2 0
BBX 3 2 0 0
BITMAP
44
50
ENDCHAR
STARTCHAR w
ENCODING 119
SWIDTH 369 0
DWIDTH 3 0
BBX 2 2 0 0
BITMAP
50
50
ENDCHAR
STARTCHAR x
ENCODING 120
SWIDTH 263 0
DWIDTH 2 0
BBX 3 2 0 0
BITMAP
64
50
ENDCHAR
STARTCHAR y
ENCODING 121
SWIDTH 280 0
DWIDTH 3 0
BBX 5 4 -2 -2
BITMAP
0440
0500
0100
5400
ENDCHAR
STARTCHAR z
ENCODING 122
SWIDTH 238 0
DWIDTH 2 0
BBX 2 2 0 0
BITMAP
10
50
ENDCHAR
STARTCHAR braceleft
ENCODING 123
SWIDTH 291 0
DWIDTH 3 0
BBX 2 7 1 -1
BITMAP
10
10
40
40
40
40
40
ENDCHAR
STARTCHAR bar
ENCODING 124
SWIDTH 162 0
DWIDTH 1 0
BBX 1 8 0 -2
BITMAP
40
40
40
40
40
40
40
40
ENDCHAR
STARTCHAR braceright
ENCODING 125
SWIDTH 285 0
DWIDTH 3 0
BBX 3 7 0 -1
BITMAP
04
04
04
04
10
10
40
ENDCHAR
STARTCHAR asciitilde
ENCODING 126
SWIDTH 383 0
DWIDTH 3 0
BBX 2 2 1 1
BITMAP
80
60
ENDCHAR
STARTCHAR space.dup1
ENCODING 160
SWIDTH 150 0
DWIDTH 1 0
BBX 1 1 0 0
BITMAP
00
ENDCHAR
STARTCHAR exclamdown
ENCODING 161
SWIDTH 189 0
DWIDTH 2 0
BBX 2 3 -1 -3
BITMAP
10
40
40
ENDCHAR
STARTCHAR cent
ENCODING 162
SWIDTH 194 0
DWIDTH 2 0
BBX 2 3 0 0
BITMAP
20
90
80
ENDCHAR
STARTCHAR sterling
ENCODING 163
SWIDTH 344 0
DWIDTH 3 0
BBX 3 3 0 0
BITMAP
04
10
54
ENDCHAR
STARTCHAR currency
ENCODING 164
SWIDTH 344 0
DWIDTH 3 0
BBX 3 2 0 0
BITMAP
40
64
ENDCHAR
STARTCHAR yen
ENCODING 165
SWIDTH 309 0
DWIDTH 3 0
BBX 2 3 0 0
BITMAP
10
70
B0
ENDCHAR
STARTCHAR brokenbar
ENCODING 166
SWIDTH 162 0
DWIDTH 1 0
BBX 1 8 0 -2
BITMAP
40
40
40
00
00
40
40
40
ENDCHAR
STARTCHAR section
ENCODING 167
SWIDTH 395 0
DWIDTH 4 0
BBX 5 7 -1 -2
BITMAP
0140
0500
0500
0500
0500
0500
5500
ENDCHAR
STARTCHAR dieresis
ENCODING 168
SWIDTH 174 0
DWIDTH 2 0
BBX 1 1 1 3
BITMAP
00
ENDCHAR
STARTCHAR copyright
ENCODING 169
SWIDTH 331 0
DWIDTH 3 0
BBX 3 2 0 2
BITMAP
10
44
ENDCHAR
STARTCHAR ordfeminine
ENCODING 170
SWIDTH 226 0
DWIDTH 2 0
BBX 2 1 0 2
BITMAP
50
ENDCHAR
STARTCHAR guillemotleft
ENCODING 171
SWIDTH 289 0
DWIDTH 3 0
BBX 3 2 0 0
BITMAP
14
60
ENDCHAR
STARTCHAR logicalnot
ENCODING 172
SWIDTH 265 0
DWIDTH 2 0
BBX 2 2 0 1
BITMAP
B0
10
ENDCHAR
STARTCHAR registered
ENCODING 174
SWIDTH 331 0
DWIDTH 3 0
BBX 3 2 0 1
BITMAP
10
54
ENDCHAR
STARTCHAR degree
ENCODING 176
SWIDTH 104 0
DWIDTH 1 0
BBX 2 2 0 2
BITMAP
10
50
ENDCHAR
STARTCHAR plusminus
ENCODING 177
SWIDTH 301 0
DWIDTH 3 0
BBX 3 3 0 0
BITMAP
10
74
10
ENDCHAR
STARTCHAR twosuperior
ENCODING 178
SWIDTH 215 0
DWIDTH 2 0
BBX 2 2 0 1
BITMAP
10
50
ENDCHAR
STARTCHAR threesuperior
ENCODING 179
SWIDTH 190 0
DWIDTH 2 0
BBX 1 2 1 1
BITMAP
40
40
ENDCHAR
STARTCHAR acute
ENCODING 180
SWIDTH 157 0
DWIDTH 1 0
BBX 1 2 0 2
BITMAP
40
40
ENDCHAR
STARTCHAR mu
ENCODING 181
SWIDTH 324 0
DWIDTH 3 0
BBX 3 3 0 -1
BITMAP
14
94
40
ENDCHAR
STARTCHAR paragraph
ENCODING 182
SWIDTH 392 0
DWIDTH 4 0
BBX 5 5 -1 -2
BITMAP
0640
0D00
0900
0500
5400
ENDCHAR
STARTCHAR periodcentered
ENCODING 183
SWIDTH 112 0
DWIDTH 1 0
BBX 1 1 0 1
BITMAP
40
ENDCHAR
STARTCHAR cedilla
ENCODING 184
SWIDTH 115 0
DWIDTH 1 0
BBX 1 1 0 -1
BITMAP
00
ENDCHAR
STARTCHAR onesuperior
ENCODING 185
SWIDTH 174 0
DWIDTH 2 0
BBX 1 3 0 1
BITMAP
40
40
40
ENDCHAR
STARTCHAR ordmasculine
ENCODING 186
SWIDTH 178 0
DWIDTH 2 0
BBX 1 1 0 2
BITMAP
40
ENDCHAR
STARTCHAR guillemotright
ENCODING 187
SWIDTH 276 0
DWIDTH 2 0
BBX 2 2 0 0
BITMAP
50
50
ENDCHAR
STARTCHAR onequarter
ENCODING 188
SWIDTH 435 0
DWIDTH 4 0
BBX 3 3 1 0
BITMAP
40
40
54
ENDCHAR
STARTCHAR onehalf
ENCODING 189
SWIDTH 434 0
DWIDTH 4 0
BBX 3 3 1 0
BITMAP
40
54
50
ENDCHAR
STARTCHAR threequarters
ENCODING 190
SWIDTH 476 0
DWIDTH 4 0
BBX 3 3 1 0
BITMAP
44
54
44
ENDCHAR
STARTCHAR questiondown
ENCODING 191
SWIDTH 285 0
DWIDTH 3 0
BBX 3 3 -1 -2
BITMAP
04
40
50
ENDCHAR
STARTCHAR Agrave
ENCODING 192
SWIDTH 996 0
DWIDTH 9 0
BBX 9 7 0 0
BITMAP
000040
001540
000040
000500
007E00
000100
550140
ENDCHAR
STARTCHAR Aacute
ENCODING 193
SWIDTH 996 0
DWIDTH 9 0
BBX 9 7 0 0
BITMAP
000040
001540
000040
000500
007E00
000100
550140
ENDCHAR
STARTCHAR Acircumflex
ENCODING 194
SWIDTH 996 0
DWIDTH 9 0
BBX 9 8 0 0
BITMAP
000040
000000
001540
000040
000500
007E00
000100
550140
ENDCHAR
STARTCHAR Atilde
ENCODING 195
SWIDTH 996 0
DWIDTH 9 0
BBX 10 7 0 0
BITMAP
000090
001540
000040
000500
007E00
000100
550140
ENDCHAR
STARTCHAR Adieresis
ENCODING 196
SWIDTH 996 0
DWIDTH 9 0
BBX 9 6 0 0
BITMAP
001540
000040
000500
007E00
000100
550140
ENDCHAR
STARTCHAR Aring
ENCODING 197
SWIDTH 996 0
DWIDTH 9 0
BBX 9 6 0 0
BITMAP
001540
000040
000500
007E00
000100
550140
ENDCHAR
STARTCHAR AE
ENCODING 198
SWIDTH 1271 0
DWIDTH 11 0
BBX 12 6 0 0
BITMAP
001551
000050
000450
007F00
000100
550054
ENDCHAR
STARTCHAR Ccedilla
ENCODING 199
SWIDTH 557 0
DWIDTH 5 0
BBX 6 6 0 0
BITMAP
0050
0000
0000
5000
6040
1900
ENDCHAR
STARTCHAR Egrave
ENCODING 200
SWIDTH 463 0
DWIDTH 4 0
BBX 5 7 0 0
BITMAP
0100
0540
0400
1C00
5000
4000
5100
ENDCHAR
STARTCHAR Eacute
ENCODING 201
SWIDTH 463 0
DWIDTH 4 0
BBX 5 7 0 0
BITMAP
0100
0540
0400
1C00
5000
4000
5100
ENDCHAR
STARTCHAR Ecircumflex
ENCODING 202
SWIDTH 463 0
DWIDTH 4 0
BBX 5 8 0 0
BITMAP
0100
0000
0540
0400
1C00
5000
4000
5100
ENDCHAR
STARTCHAR Edieresis
ENCODING 203
SWIDTH 463 0
DWIDTH 4 0
BBX 5 6 0 0
BITMAP
0540
0400
1C00
5000
4000
5100
ENDCHAR
STARTCHAR Igrave
ENCODING 204
SWIDTH 514 0
DWIDTH 5 0
BBX 6 6 0 0
BITMAP
0050
0140
0140
0140
4100
7800
ENDCHAR
STARTCHAR Iacute
ENCODING 205
SWIDTH 514 0
DWIDTH 5 0
BBX 6 8 0 0
BITMAP
0010
0000
0050
0140
0140
0140
4100
7800
ENDCHAR
STARTCHAR Icircumflex
ENCODING 206
SWIDTH 514 0
DWIDTH 5 0
BBX 6 8 0 0
BITMAP
0010
0000
0050
0140
0140
0140
4100
7800
ENDCHAR
STARTCHAR Idieresis
ENCODING 207
SWIDTH 514 0
DWIDTH 5 0
BBX 6 7 0 0
BITMAP
0010
0050
0140
0140
0140
4100
7800
ENDCHAR
STARTCHAR Eth
ENCODING 208
SWIDTH 800 0
DWIDTH 7 0
BBX 7 7 0 -1
BITMAP
0550
0044
0104
07C4
0100
5404
0050
ENDCHAR
STARTCHAR Ntilde
ENCODING 209
SWIDTH 796 0
DWIDTH 7 0
BBX 12 7 -2 0
BITMAP
000180
015005
001810
001110
001140
404040
250040
ENDCHAR
STARTCHAR Ograve
ENCODING 210
SWIDTH 608 0
DWIDTH 5 0
BBX 6 6 0 0
BITMAP
07D0
1460
1010
4010
6080
2E40
ENDCHAR
STARTCHAR Oacute
ENCODING 211
SWIDTH 608 0
DWIDTH 5 0
BBX 6 6 0 0
BITMAP
07D0
1460
1010
4010
6080
2E40
ENDCHAR
STARTCHAR Ocircumflex
ENCODING 212
SWIDTH 608 0
DWIDTH 5 0
BBX 6 8 0 0
BITMAP
0040
0000
07D0
1460
1010
4010
6080
2E40
ENDCHAR
STARTCHAR Otilde
ENCODING 213
SWIDTH 608 0
DWIDTH 5 0
BBX 6 7 0 0
BITMAP
0200
07D0
1460
1010
4010
6080
2E40
ENDCHAR
STARTCHAR Odieresis
ENCODING 214
SWIDTH 608 0
DWIDTH 5 0
BBX 6 6 0 0
BITMAP
07D0
1460
1010
4010
6080
2E40
ENDCHAR
STARTCHAR multiply
ENCODING 215
SWIDTH 301 0
DWIDTH 3 0
BBX 2 2 0 0
BITMAP
10
50
ENDCHAR
STARTCHAR Oslash
ENCODING 216
SWIDTH 605 0
DWIDTH 5 0
BBX 6 6 0 0
BITMAP
0B90
2550
1210
4810
4480
1E00
ENDCHAR
STARTCHAR Ugrave
ENCODING 217
SWIDTH 717 0
DWIDTH 6 0
BBX 6 7 1 0
BITMAP
0040
5410
0010
0040
0180
5640
7840
ENDCHAR
STARTCHAR Uacute
ENCODING 218
SWIDTH 717 0
DWIDTH 6 0
BBX 6 7 1 0
BITMAP
0040
5410
0010
0040
0180
5640
7840
ENDCHAR
STARTCHAR Ucircumflex
ENCODING 219
SWIDTH 718 0
DWIDTH 6 0
BBX 6 7 1 0
BITMAP
0040
5410
0010
0040
0180
5640
7840
ENDCHAR
STARTCHAR Udieresis
ENCODING 220
SWIDTH 718 0
DWIDTH 6 0
BBX 6 7 1 0
BITMAP
0040
5410
0010
0040
0180
5640
7840
ENDCHAR
STARTCHAR Yacute
ENCODING 221
SWIDTH 662 0
DWIDTH 6 0
BBX 8 7 0 -1
BITMAP
0141
0105
0108
4160
4290
4140
3D00
ENDCHAR
STARTCHAR Thorn
ENCODING 222
SWIDTH 745 0
DWIDTH 7 0
BBX 7 6 0 0
BITMAP
0010
0078
0058
0080
4010
5400
ENDCHAR
STARTCHAR germandbls
ENCODING 223
SWIDTH 304 0
DWIDTH 3 0
BBX 8 9 -3 -2
BITMAP
0018
0012
0019
0064
0040
0000
0090
0000
4000
ENDCHAR
STARTCHAR agrave
ENCODING 224
SWIDTH 294 0
DWIDTH 3 0
BBX 3 4 0 0
BITMAP
10
00
74
40
ENDCHAR
STARTCHAR aacute
ENCODING 225
SWIDTH 294 0
DWIDTH 3 0
BBX 3 4 0 0
BITMAP
04
00
74
40
ENDCHAR
STARTCHAR acircumflex
ENCODING 226
SWIDTH 294 0
DWIDTH 3 0
BBX 3 2 0 0
BITMAP
74
40
ENDCHAR
STARTCHAR atilde
ENCODING 227
SWIDTH 294 0
DWIDTH 3 0
BBX 3 4 0 0
BITMAP
14
14
74
40
ENDCHAR
STARTCHAR adieresis
ENCODING 228
SWIDTH 284 0
DWIDTH 3 0
BBX 3 2 0 0
BITMAP
74
40
ENDCHAR
STARTCHAR aring
ENCODING 229
SWIDTH 294 0
DWIDTH 3 0
BBX 3 4 0 0
BITMAP
14
10
74
40
ENDCHAR
STARTCHAR ae
ENCODING 230
SWIDTH 363 0
DWIDTH 3 0
BBX 3 2 0 0
BITMAP
04
54
ENDCHAR
STARTCHAR ccedilla
ENCODING 231
SWIDTH 203 0
DWIDTH 2 0
BBX 2 3 0 0
BITMAP
10
00
40
ENDCHAR
STARTCHAR egrave
ENCODING 232
SWIDTH 206 0
DWIDTH 2 0
BBX 2 4 0 0
BITMAP
10
00
50
40
ENDCHAR
STARTCHAR eacute
ENCODING 233
SWIDTH 206 0
DWIDTH 2 0
BBX 2 4 0 0
BITMAP
10
10
50
40
ENDCHAR
STARTCHAR ecircumflex
ENCODING 234
SWIDTH 206 0
DWIDTH 2 0
BBX 2 2 0 0
BITMAP
50
40
ENDCHAR
STARTCHAR edieresis
ENCODING 235
SWIDTH 206 0
DWIDTH 2 0
BBX 2 4 0 0
BITMAP
10
00
50
40
ENDCHAR
STARTCHAR igrave
ENCODING 236
SWIDTH 149 0
DWIDTH 1 0
BBX 1 2 0 0
BITMAP
40
40
ENDCHAR
STARTCHAR iacute
ENCODING 237
SWIDTH 149 0
DWIDTH 1 0
BBX 2 4 0 0
BITMAP
10
10
40
40
ENDCHAR
STARTCHAR icircumflex
ENCODING 238
SWIDTH 149 0
DWIDTH 1 0
BBX 1 2 0 0
BITMAP
40
40
ENDCHAR
STARTCHAR idieresis
ENCODING 239
SWIDTH 149 0
DWIDTH 1 0
BBX 2 4 0 0
BITMAP
10
00
40
40
ENDCHAR
STARTCHAR eth
ENCODING 240
SWIDTH 234 0
DWIDTH 2 0
BBX 2 5 0 0
BITMAP
40
10
10
00
50
ENDCHAR
STARTCHAR ntilde
ENCODING 241
SWIDTH 291 0
DWIDTH 3 0
BBX 3 4 0 0
BITMAP
14
14
44
50
ENDCHAR
STARTCHAR ograve
ENCODING 242
SWIDTH 225 0
DWIDTH 2 0
BBX 2 4 0 0
BITMAP
10
00
10
40
ENDCHAR
STARTCHAR oacute
ENCODING 243
SWIDTH 225 0
DWIDTH 2 0
BBX 3 4 0 0
BITMAP
14
10
10
40
ENDCHAR
STARTCHAR ocircumflex
ENCODING 244
SWIDTH 225 0
DWIDTH 2 0
BBX 2 2 0 0
BITMAP
10
40
ENDCHAR
STARTCHAR otilde
ENCODING 245
SWIDTH 225 0
DWIDTH 2 0
BBX 2 4 0 0
BITMAP
10
20
10
40
ENDCHAR
STARTCHAR odieresis
ENCODING 246
SWIDTH 225 0
DWIDTH 2 0
BBX 2 4 0 0
BITMAP
10
00
10
40
ENDCHAR
STARTCHAR divide
ENCODING 247
SWIDTH 301 0
DWIDTH 3 0
BBX 1 1 1 0
BITMAP
40
ENDCHAR
STARTCHAR oslash
ENCODING 248
SWIDTH 225 0
DWIDTH 2 0
BBX 2 2 0 0
BITMAP
10
50
ENDCHAR
STARTCHAR ugrave
ENCODING 249
SWIDTH 299 0
DWIDTH 3 0
BBX 3 4 0 0
BITMAP
10
00
44
40
ENDCHAR
STARTCHAR uacute
ENCODING 250
SWIDTH 299 0
DWIDTH 3 0
BBX 3 4 0 0
BITMAP
04
00
44
40
ENDCHAR
STARTCHAR ucircumflex
ENCODING 251
SWIDTH 299 0
DWIDTH 3 0
BBX 3 2 0 0
BITMAP
44
40
ENDCHAR
STARTCHAR udieresis
ENCODING 252
SWIDTH 299 0
DWIDTH 3 0
BBX 3 2 0 0
BITMAP
44
40
ENDCHAR
STARTCHAR yacute
ENCODING 253
SWIDTH 280 0
DWIDTH 3 0
BBX 5 6 -2 -2
BITMAP
0040
0000
0440
0500
0100
5400
ENDCHAR
STARTCHAR thorn
ENCODING 254
SWIDTH 261 0
DWIDTH 2 0
BBX 4 6 -1 -2
BITMAP
04
04
05
28
10
40
ENDCHAR
STARTCHAR ydieresis
ENCODING 255
SWIDTH 280 0
DWIDTH 3 0
BBX 5 4 -2 -2
BITMAP
0440
0500
0100
5400
ENDCHAR
STARTCHAR dotlessi
ENCODING 305
SWIDTH 149 0
DWIDTH 1 0
BBX 1 2 0 0
BITMAP
40
40
ENDCHAR
STARTCHAR Lslash
ENCODING 321
SWIDTH 657 0
DWIDTH 6 0
BBX 7 6 0 0
BITMAP
0074
0044
0240
1600
5D00
A6C0
ENDCHAR
STARTCHAR lslash
ENCODING 322
SWIDTH 134 0
DWIDTH 1 0
BBX 4 7 0 0
BITMAP
01
04
10
10
40
40
40
ENDCHAR
STARTCHAR OE
ENCODING 338
SWIDTH 827 0
DWIDTH 7 0
BBX 8 6 0 0
BITMAP
0BD1
1460
1064
4140
6100
2E44
ENDCHAR
STARTCHAR oe
ENCODING 339
SWIDTH 345 0
DWIDTH 3 0
BBX 3 2 0 0
BITMAP
14
50
ENDCHAR
STARTCHAR Scaron
ENCODING 352
SWIDTH 480 0
DWIDTH 4 0
BBX 5 8 0 0
BITMAP
0100
0000
0040
0400
0200
0100
4100
5400
ENDCHAR
STARTCHAR scaron
ENCODING 353
SWIDTH 188 0
DWIDTH 2 0
BBX 2 2 0 0
BITMAP
40
50
ENDCHAR
STARTCHAR Ydieresis
ENCODING 376
SWIDTH 662 0
DWIDTH 6 0
BBX 8 7 0 -1
BITMAP
0141
0105
0108
4160
4290
4140
3D00
ENDCHAR
STARTCHAR Zcaron
ENCODING 381
SWIDTH 625 0
DWIDTH 6 0
BBX 6 8 0 0
BITMAP
0040
0000
02E0
0450
0000
0000
0000
7F40
ENDCHAR
STARTCHAR zcaron
ENCODING 382
SWIDTH 248 0
DWIDTH 2 0
BBX 2 2 0 0
BITMAP
10
50
ENDCHAR
STARTCHAR florin
ENCODING 402
SWIDTH 214 0
DWIDTH 2 0
BBX 3 3 0 0
BITMAP
34
A0
40
ENDCHAR
STARTCHAR circumflex
ENCODING 710
SWIDTH 196 0
DWIDTH 2 0
BBX 1 1 1 3
BITMAP
00
ENDCHAR
STARTCHAR caron
ENCODING 711
SWIDTH 196 0
DWIDTH 2 0
BBX 1 1 1 3
BITMAP
00
ENDCHAR
STARTCHAR breve
ENCODING 728
SWIDTH 198 0
DWIDTH 2 0
BBX 1 1 1 3
BITMAP
00
ENDCHAR
STARTCHAR dotaccent
ENCODING 729
SWIDTH 89 0
DWIDTH 1 0
BBX 1 1 0 3
BITMAP
00
ENDCHAR
STARTCHAR ring
ENCODING 730
SWIDTH 117 0
DWIDTH 1 0
BBX 1 2 0 2
BITMAP
40
40
ENDCHAR
STARTCHAR ogonek
ENCODING 731
SWIDTH 124 0
DWIDTH 1 0
BBX 1 1 0 -1
BITMAP
40
ENDCHAR
STARTCHAR tilde
ENCODING 732
SWIDTH 222 0
DWIDTH 2 0
BBX 2 2 0 2
BITMAP
50
50
ENDCHAR
STARTCHAR hungarumlaut
ENCODING 733
SWIDTH 253 0
DWIDTH 2 0
BBX 2 2 0 2
BITMAP
60
50
ENDCHAR
STARTCHAR mu.dup2
ENCODING 956
SWIDTH 324 0
DWIDTH 3 0
BBX 3 3 0 -1
BITMAP
14
94
40
ENDCHAR
STARTCHAR endash
ENCODING 8211
SWIDTH 500 0
DWIDTH 5 0
BBX 5 1 0 1
BITMAP
BF40
ENDCHAR
STARTCHAR emdash
ENCODING 8212
SWIDTH 1000 0
DWIDTH 9 0
BBX 9 1 0 1
BITMAP
BFFF80
ENDCHAR
STARTCHAR quoteleft
ENCODING 8216
SWIDTH 87 0
DWIDTH 1 0
BBX 1 1 0 2
BITMAP
40
ENDCHAR
STARTCHAR quoteright
ENCODING 8217
SWIDTH 87 0
DWIDTH 1 0
BBX 1 1 1 2
BITMAP
00
ENDCHAR
STARTCHAR quotesinglbase
ENCODING 8218
SWIDTH 112 0
DWIDTH 1 0
BBX 1 1 0 0
BITMAP
00
ENDCHAR
STARTCHAR quotedblleft
ENCODING 8220
SWIDTH 167 0
DWIDTH 2 0
BBX 2 2 0 2
BITMAP
10
50
ENDCHAR
STARTCHAR quotedblright
ENCODING 8221
SWIDTH 167 0
DWIDTH 2 0
BBX 1 2 1 2
BITMAP
40
40
ENDCHAR
STARTCHAR quotedblbase
ENCODING 8222
SWIDTH 192 0
DWIDTH 2 0
BBX 2 1 0 0
BITMAP
50
ENDCHAR
STARTCHAR dagger
ENCODING 8224
SWIDTH 185 0
DWIDTH 2 0
BBX 2 5 0 -1
BITMAP
10
70
00
40
40
ENDCHAR
STARTCHAR daggerdbl
ENCODING 8225
SWIDTH 185 0
DWIDTH 2 0
BBX 2 4 0 0
BITMAP
10
70
00
90
ENDCHAR
STARTCHAR bullet
ENCODING 8226
SWIDTH 207 0
DWIDTH 2 0
BBX 2 1 0 1
BITMAP
50
ENDCHAR
STARTCHAR ellipsis
ENCODING 8230
SWIDTH 376 0
DWIDTH 3 0
BBX 1 1 3 0
BITMAP
00
ENDCHAR
STARTCHAR perthousand
ENCODING 8240
SWIDTH 571 0
DWIDTH 5 0
BBX 5 3 0 0
BITMAP
5400
5540
1540
ENDCHAR
STARTCHAR guilsinglleft
ENCODING 8249
SWIDTH 189 0
DWIDTH 2 0
BBX 1 1 0 0
BITMAP
40
ENDCHAR
STARTCHAR guilsinglright
ENCODING 8250
SWIDTH 176 0
DWIDTH 2 0
BBX 1 2 0 0
BITMAP
40
40
ENDCHAR
STARTCHAR fraction
ENCODING 8260
SWIDTH 220 0
DWIDTH 2 0
BBX 3 3 0 0
BITMAP
04
10
40
ENDCHAR
STARTCHAR Euro
ENCODING 8364
SWIDTH 360 0
DWIDTH 3 0
BBX 3 4 0 0
BITMAP
24
B0
40
40
ENDCHAR
STARTCHAR trademark
ENCODING 8482
SWIDTH 389 0
DWIDTH 4 0
BBX 2 1 1 2
BITMAP
50
ENDCHAR
STARTCHAR minus
ENCODING 8722
SWIDTH 301 0
DWIDTH 3 0
BBX 3 1 0 1
BITMAP
74
ENDCHAR
STARTCHAR fi
ENCODING 64257
SWIDTH 297 0
DWIDTH 3 0
BBX 5 8 0 -1
BITMAP
0140
0400
0400
1400
1000
B400
5000
4000
ENDCHAR
STARTCHAR fl
ENCODING 64258
SWIDTH 290 0
DWIDTH 3 0
BBX 6 8 0 -1
BITMAP
0250
0400
1400
1000
1000
B400
5400
4000
ENDCHAR
STARTCHAR .notdef
ENCODING -1
SWIDTH 150 0
DWIDTH 1 0
BBX 1 1 0 0
BITMAP
00
ENDCHAR
STARTCHAR .null
ENCODING -1
SWIDTH 0 0
DWIDTH 0 0
BBX 1 1 0 0
BITMAP
00
ENDCHAR
STARTCHAR nonmarkingreturn
ENCODING -1
SWIDTH 150 0
DWIDTH 1 0
BBX 1 1 0 0
BITMAP
00
ENDCHAR
ENDFONT
